<svg id="visual" viewBox="0 0 900 600" width="900" height="600" xmlns="http://www.w3.org/2000/svg" xmlns:xlink="http://www.w3.org/1999/xlink" version="1.1"><rect x="0" y="0" width="900" height="600" fill="#f9faff"></rect><path d="M0 532L25 529.3C50 526.7 100 521.3 150 524.7C200 528 250 540 300 532.8C350 525.7 400 499.3 450 494.7C500 490 550 507 600 510.8C650 514.7 700 505.3 750 498.2C800 491 850 486 875 483.5L900 481L900 601L875 601C850 601 800 601 750 601C700 601 650 601 600 601C550 601 500 601 450 601C400 601 350 601 300 601C250 601 200 601 150 601C100 601 50 601 25 601L0 601Z" fill="#fdc435" stroke-linecap="round" stroke-linejoin="miter"></path></svg>